<?xml version="1.0" standalone="no"?>
<!DOCTYPE svg PUBLIC "-//W3C//DTD SVG 20010904//EN"
 "http://www.w3.org/TR/2001/REC-SVG-20010904/DTD/svg10.dtd">
<svg version="1.0" xmlns="http://www.w3.org/2000/svg"
 width="160.000000pt" height="160.000000pt" viewBox="0 0 160.000000 160.000000"
 preserveAspectRatio="xMidYMid meet">
<metadata>
Created by potrace 1.14, written by Peter Selinger 2001-2017
</metadata>
<g transform="translate(0.000000,160.000000) scale(0.100000,-0.100000)"
fill="#000000" stroke="none">
<path d="M50 800 l0 -800 140 0 140 0 0 23 c0 13 21 88 46 166 42 131 44 144
31 165 -11 17 -14 42 -11 97 2 41 6 79 8 86 3 6 -2 19 -9 30 -19 24 -18 33 3
34 19 0 71 70 102 139 42 91 56 115 67 113 7 -2 23 11 37 28 22 26 36 32 113
44 145 24 136 25 145 -15 4 -19 10 -52 13 -74 3 -21 7 -41 9 -45 2 -3 0 -15
-4 -26 -4 -11 -3 -30 1 -43 7 -17 4 -26 -12 -40 -45 -37 -98 -129 -103 -178
-3 -27 -9 -68 -12 -90 -7 -50 -12 -108 -13 -152 -1 -30 -3 -32 -21 -22 -16 9
-22 8 -26 -5 -4 -9 -2 -21 5 -28 18 -18 13 -54 -14 -107 -50 -98 -20 -103 74
-13 36 34 69 63 73 63 4 0 12 9 18 20 9 16 5 25 -19 51 l-30 30 26 67 c36 94
54 153 48 162 -9 15 21 40 52 44 18 3 38 8 45 12 15 10 30 14 76 21 18 3 35 9
38 14 3 5 8 9 12 9 6 0 8 -24 11 -177 1 -24 5 -43 10 -43 5 0 8 24 6 53 -10
129 -8 178 10 197 18 20 41 28 31 11 -13 -21 -14 -110 -1 -121 36 -30 85 -15
91 28 2 9 5 26 8 38 4 16 -5 34 -34 66 -22 25 -37 47 -35 50 3 2 6 13 8 24 2
10 13 40 25 65 61 131 74 182 76 289 1 90 11 126 28 97 5 -9 4 -35 -3 -64 -16
-70 -13 -137 9 -185 10 -24 17 -57 15 -73 -2 -21 0 -25 6 -15 16 29 22 70 9
70 -6 0 -4 6 6 13 15 11 19 28 19 88 0 41 -3 93 -7 116 -8 41 -8 42 33 67 24
15 49 43 62 68 18 36 20 46 10 79 -12 39 -81 108 -110 110 -9 0 -31 2 -49 4
-25 2 -41 -4 -60 -22 -20 -18 -22 -23 -9 -19 15 5 13 -1 -8 -26 -15 -18 -35
-37 -44 -43 -9 -5 -16 -14 -17 -20 0 -5 -4 -23 -8 -38 -6 -20 -4 -33 8 -46 16
-18 22 -71 8 -71 -5 0 -27 16 -50 35 -40 35 -41 37 -39 96 1 33 -1 66 -5 72
-5 7 -7 -16 -5 -50 1 -35 -2 -63 -6 -63 -10 0 -37 62 -30 72 6 11 5 279 -1
286 -7 6 -8 -16 -8 -166 0 -61 -3 -110 -8 -107 -5 3 -16 28 -25 55 -15 46 -15
54 -1 96 17 50 9 84 -20 84 -11 0 -13 6 -9 20 6 20 2 20 -469 20 l-476 0 0
-800z m963 428 c14 -30 30 -59 36 -62 18 -11 13 -26 -6 -19 -26 10 -154 101
-180 129 -28 28 -28 35 -3 66 10 14 16 29 12 33 -4 4 11 22 33 40 l40 34 21
-82 c13 -46 33 -108 47 -139z m-151 -52 c73 -71 130 -112 169 -121 25 -6 25
-8 26 -103 0 -76 -2 -92 -10 -72 -31 75 -81 170 -98 185 -26 24 -70 17 -199
-32 -86 -33 -108 -38 -120 -28 -9 8 -22 10 -35 5 -38 -16 -48 -10 -19 12 36
28 85 78 149 156 28 34 55 61 60 61 6 1 40 -28 77 -63z m231 -158 c-3 -6 -5
-36 -4 -67 0 -31 -3 -62 -8 -70 -6 -9 -9 17 -9 72 0 69 2 85 14 80 8 -3 11
-10 7 -15z"/>
<path d="M1103 1486 c1 -64 4 -116 7 -116 8 0 6 218 -2 225 -3 4 -6 -46 -5
-109z"/>
<path d="M1115 323 c7 -78 19 -133 26 -133 5 0 7 10 4 23 -8 29 -13 75 -14
110 -1 15 -5 27 -10 27 -5 0 -7 -12 -6 -27z"/>
<path d="M1135 168 c2 -7 6 -31 9 -53 3 -22 8 -49 10 -60 3 -11 5 -26 5 -33 1
-7 5 -11 10 -8 5 4 4 27 -4 56 -16 61 -15 55 -15 85 0 14 -4 25 -10 25 -5 0
-8 -6 -5 -12z"/>
</g>
</svg>
